<svg xmlns="http://www.w3.org/2000/svg" xmlns:xlink="http://www.w3.org/1999/xlink" width="1920" zoomAndPan="magnify" viewBox="0 0 1440 809.999993" height="1080" preserveAspectRatio="xMidYMid meet" version="1.0"><defs><g/></defs><rect x="-144" width="1728" fill="#ffffff" y="-80.999999" height="971.999992" fill-opacity="1"/><rect x="-144" width="1728" fill="#000000" y="-80.999999" height="971.999992" fill-opacity="1"/><path fill="#5540d8" d="M 727.351562 94.542969 C 733.054688 94.542969 738.753906 94.695312 744.445312 95.003906 C 750.140625 95.308594 755.820312 95.769531 761.488281 96.382812 C 767.15625 96.996094 772.804688 97.761719 778.433594 98.679688 C 784.058594 99.601562 789.660156 100.667969 795.226562 101.890625 C 800.796875 103.109375 806.332031 104.476562 811.828125 105.996094 C 817.324219 107.515625 822.773438 109.179688 828.179688 110.992188 C 833.585938 112.804688 838.9375 114.761719 844.238281 116.863281 C 849.539062 118.960938 854.78125 121.203125 859.960938 123.589844 C 865.140625 125.972656 870.25 128.492188 875.296875 131.152344 C 880.339844 133.8125 885.308594 136.605469 890.199219 139.53125 C 895.09375 142.457031 899.90625 145.515625 904.632812 148.699219 C 909.359375 151.886719 914 155.199219 918.550781 158.636719 C 923.097656 162.070312 927.554688 165.628906 931.910156 169.304688 C 936.269531 172.980469 940.523438 176.773438 944.679688 180.679688 C 948.832031 184.585938 952.878906 188.601562 956.816406 192.726562 C 960.75 196.847656 964.574219 201.078125 968.285156 205.40625 C 971.992188 209.738281 975.582031 214.164062 979.054688 218.6875 C 982.523438 223.210938 985.871094 227.828125 989.089844 232.53125 C 992.3125 237.234375 995.40625 242.023438 998.367188 246.894531 C 1001.332031 251.765625 1004.164062 256.710938 1006.859375 261.734375 C 1009.554688 266.761719 1012.113281 271.851562 1014.535156 277.015625 C 1016.960938 282.175781 1019.242188 287.398438 1021.378906 292.683594 C 1023.519531 297.96875 1025.519531 303.308594 1027.371094 308.699219 C 1029.222656 314.09375 1030.929688 319.53125 1032.488281 325.015625 C 1034.046875 330.5 1035.457031 336.023438 1036.71875 341.582031 C 1037.980469 347.144531 1039.089844 352.734375 1040.050781 358.351562 C 1041.011719 363.972656 1041.820312 369.617188 1042.476562 375.28125 C 1043.132812 380.945312 1043.632812 386.621094 1043.984375 392.3125 C 1044.335938 398.003906 1044.53125 403.699219 1044.574219 409.402344 C 1044.617188 415.101562 1044.503906 420.800781 1044.238281 426.496094 C 1043.976562 432.191406 1043.558594 437.875 1042.984375 443.550781 C 1042.414062 449.222656 1041.691406 454.875 1040.816406 460.511719 C 1039.9375 466.144531 1038.910156 471.75 1037.734375 477.328125 C 1036.554688 482.910156 1035.226562 488.449219 1033.75 493.957031 C 1032.273438 499.464844 1030.648438 504.929688 1028.875 510.347656 C 1027.105469 515.765625 1025.1875 521.136719 1023.128906 526.453125 C 1021.066406 531.765625 1018.863281 537.023438 1016.519531 542.222656 C 1014.171875 547.417969 1011.691406 552.550781 1009.070312 557.613281 C 1006.449219 562.675781 1003.691406 567.664062 1000.800781 572.582031 C 997.910156 577.496094 994.890625 582.328125 991.738281 587.082031 C 988.589844 591.832031 985.3125 596.496094 981.910156 601.070312 C 978.507812 605.648438 974.984375 610.128906 971.339844 614.511719 C 967.695312 618.898438 963.9375 623.183594 960.0625 627.363281 C 956.1875 631.546875 952.203125 635.621094 948.109375 639.589844 C 944.011719 643.558594 939.8125 647.414062 935.511719 651.152344 C 931.207031 654.894531 926.808594 658.519531 922.3125 662.023438 C 917.8125 665.527344 913.222656 668.90625 908.542969 672.164062 C 903.863281 675.417969 899.097656 678.546875 894.25 681.546875 C 889.402344 684.546875 884.476562 687.414062 879.472656 690.148438 C 874.46875 692.882812 869.394531 695.480469 864.25 697.941406 C 859.109375 700.402344 853.902344 702.722656 848.632812 704.902344 C 843.363281 707.082031 838.039062 709.117188 832.664062 711.011719 C 827.285156 712.902344 821.859375 714.648438 816.386719 716.25 C 810.914062 717.851562 805.402344 719.300781 799.851562 720.605469 C 794.300781 721.90625 788.71875 723.058594 783.105469 724.0625 C 777.492188 725.066406 771.855469 725.914062 766.199219 726.613281 C 760.539062 727.3125 754.863281 727.855469 749.175781 728.25 C 743.488281 728.640625 737.792969 728.878906 732.09375 728.964844 C 726.390625 729.050781 720.691406 728.980469 714.996094 728.757812 C 709.296875 728.535156 703.609375 728.160156 697.933594 727.632812 C 692.253906 727.105469 686.597656 726.421875 680.957031 725.589844 C 675.316406 724.753906 669.703125 723.769531 664.113281 722.632812 C 658.527344 721.496094 652.976562 720.210938 647.457031 718.773438 C 641.9375 717.339844 636.464844 715.753906 631.03125 714.023438 L 727.351562 411.769531 Z M 727.351562 94.542969 " fill-opacity="1" fill-rule="nonzero"/><path fill="#df1d09" d="M 631.03125 714.023438 C 626.570312 712.601562 622.144531 711.082031 617.75 709.464844 C 613.359375 707.847656 609.003906 706.132812 604.683594 704.324219 C 600.367188 702.511719 596.09375 700.609375 591.859375 698.609375 C 587.625 696.609375 583.441406 694.515625 579.300781 692.332031 C 575.160156 690.148438 571.070312 687.871094 567.027344 685.503906 C 562.988281 683.140625 559.003906 680.683594 555.074219 678.144531 C 551.140625 675.601562 547.269531 672.972656 543.453125 670.257812 C 539.640625 667.542969 535.886719 664.746094 532.195312 661.867188 C 528.503906 658.988281 524.878906 656.027344 521.320312 652.988281 C 517.761719 649.945312 514.269531 646.828125 510.847656 643.632812 C 507.425781 640.4375 504.078125 637.167969 500.800781 633.824219 C 497.523438 630.480469 494.320312 627.066406 491.195312 623.582031 C 488.070312 620.097656 485.023438 616.546875 482.054688 612.925781 C 479.085938 609.304688 476.199219 605.621094 473.394531 601.875 C 470.589844 598.125 467.867188 594.316406 465.230469 590.449219 C 462.59375 586.582031 460.042969 582.65625 457.582031 578.675781 C 455.117188 574.695312 452.742188 570.660156 450.457031 566.574219 C 448.175781 562.488281 445.980469 558.351562 443.878906 554.167969 C 441.777344 549.984375 439.769531 545.757812 437.855469 541.484375 C 435.941406 537.214844 434.125 532.902344 432.398438 528.546875 C 430.675781 524.195312 429.050781 519.808594 427.519531 515.382812 C 425.992188 510.957031 424.5625 506.5 423.230469 502.011719 C 421.898438 497.523438 420.667969 493.007812 419.535156 488.464844 C 418.402344 483.925781 417.371094 479.359375 416.441406 474.769531 C 415.511719 470.183594 414.683594 465.574219 413.960938 460.949219 C 413.234375 456.324219 412.609375 451.6875 412.089844 447.035156 C 411.570312 442.382812 411.152344 437.71875 410.839844 433.050781 C 410.523438 428.378906 410.3125 423.703125 410.207031 419.023438 C 410.101562 414.34375 410.097656 409.660156 410.195312 404.980469 C 410.296875 400.300781 410.5 395.625 410.808594 390.953125 C 411.113281 386.28125 411.523438 381.621094 412.039062 376.964844 C 412.550781 372.3125 413.167969 367.671875 413.886719 363.046875 C 414.605469 358.421875 415.429688 353.8125 416.351562 349.222656 C 417.273438 344.632812 418.296875 340.066406 419.421875 335.523438 C 420.546875 330.980469 421.773438 326.460938 423.097656 321.972656 C 424.425781 317.480469 425.847656 313.023438 427.371094 308.597656 C 428.894531 304.167969 430.511719 299.777344 432.230469 295.421875 C 433.949219 291.066406 435.761719 286.753906 437.667969 282.476562 C 439.574219 278.203125 441.578125 273.972656 443.671875 269.785156 C 445.769531 265.597656 447.957031 261.460938 450.234375 257.371094 C 452.511719 253.28125 454.878906 249.242188 457.335938 245.257812 C 459.796875 241.273438 462.339844 237.347656 464.96875 233.472656 C 467.601562 229.601562 470.316406 225.789062 473.117188 222.039062 C 475.917969 218.285156 478.800781 214.597656 481.761719 210.972656 C 484.726562 207.347656 487.769531 203.792969 490.886719 200.304688 C 494.007812 196.8125 497.207031 193.394531 500.476562 190.046875 C 503.75 186.699219 507.09375 183.425781 510.511719 180.222656 C 513.929688 177.023438 517.414062 173.902344 520.96875 170.855469 C 524.527344 167.808594 528.144531 164.84375 531.832031 161.957031 C 535.519531 159.074219 539.269531 156.269531 543.078125 153.550781 C 546.890625 150.832031 550.757812 148.199219 554.6875 145.648438 C 558.613281 143.101562 562.59375 140.640625 566.632812 138.269531 C 570.667969 135.898438 574.753906 133.617188 578.890625 131.425781 C 583.027344 129.234375 587.210938 127.136719 591.441406 125.132812 C 595.671875 123.125 599.945312 121.214844 604.257812 119.398438 C 608.574219 117.582031 612.925781 115.859375 617.316406 114.238281 C 621.707031 112.613281 626.132812 111.085938 630.59375 109.660156 C 635.050781 108.230469 639.539062 106.902344 644.054688 105.671875 C 648.574219 104.445312 653.113281 103.316406 657.683594 102.289062 C 662.25 101.257812 666.835938 100.332031 671.445312 99.507812 C 676.054688 98.683594 680.679688 97.960938 685.316406 97.339844 C 689.957031 96.71875 694.609375 96.203125 699.273438 95.789062 C 703.9375 95.371094 708.605469 95.0625 713.285156 94.855469 C 717.960938 94.648438 722.640625 94.542969 727.320312 94.542969 L 727.351562 411.769531 Z M 631.03125 714.023438 " fill-opacity="1" fill-rule="nonzero"/><g fill="#ffffff" fill-opacity="1"><g transform="translate(1056.208551, 481.568806)"><g><path d="M 1.40625 -5.3125 L 2.8125 -5.3125 C 2.8125 -3.914062 3.207031 -2.84375 4 -2.09375 C 4.789062 -1.351562 5.957031 -0.984375 7.5 -0.984375 C 8.925781 -0.984375 10.050781 -1.382812 10.875 -2.1875 C 11.695312 -2.988281 12.109375 -4.125 12.109375 -5.59375 C 12.109375 -6.8125 11.8125 -7.78125 11.21875 -8.5 C 10.632812 -9.21875 9.734375 -9.578125 8.515625 -9.578125 C 7.484375 -9.578125 6.648438 -9.359375 6.015625 -8.921875 C 5.390625 -8.492188 4.898438 -8.007812 4.546875 -7.46875 L 2.625 -8.40625 L 2.625 -15.03125 L 12.484375 -15.03125 L 12.484375 -13.84375 L 4.03125 -13.84375 L 4.03125 -9.890625 L 3.8125 -8.828125 L 4.1875 -8.609375 C 4.59375 -9.148438 5.179688 -9.644531 5.953125 -10.09375 C 6.722656 -10.539062 7.644531 -10.765625 8.71875 -10.765625 C 10.238281 -10.765625 11.414062 -10.285156 12.25 -9.328125 C 13.09375 -8.367188 13.515625 -7.078125 13.515625 -5.453125 C 13.515625 -4.296875 13.257812 -3.289062 12.75 -2.4375 C 12.25 -1.59375 11.550781 -0.9375 10.65625 -0.46875 C 9.769531 -0.0078125 8.71875 0.21875 7.5 0.21875 C 5.570312 0.21875 4.070312 -0.269531 3 -1.25 C 1.9375 -2.238281 1.40625 -3.59375 1.40625 -5.3125 Z M 1.40625 -5.3125 "/></g></g></g><g fill="#ffffff" fill-opacity="1"><g transform="translate(1071.132549, 481.568806)"><g><path d="M 10.8125 -4.671875 L 12.8125 -4.671875 L 12.8125 -3.46875 L 10.8125 -3.46875 L 10.8125 0 L 9.40625 0 L 9.40625 -3.46875 L 1.40625 -3.46875 L 1.40625 -5.96875 C 2.53125 -6.519531 3.578125 -7.226562 4.546875 -8.09375 C 5.523438 -8.96875 6.34375 -9.988281 7 -11.15625 C 7.664062 -12.320312 8.078125 -13.613281 8.234375 -15.03125 L 9.640625 -15.03125 C 9.441406 -13.6875 9.046875 -12.398438 8.453125 -11.171875 C 7.867188 -9.941406 7.035156 -8.796875 5.953125 -7.734375 C 4.878906 -6.671875 3.503906 -5.722656 1.828125 -4.890625 L 1.828125 -4.453125 L 2.90625 -4.671875 L 9.40625 -4.671875 L 9.40625 -10.5625 L 10.8125 -10.5625 Z M 10.8125 -4.671875 "/></g></g></g><g fill="#ffffff" fill-opacity="1"><g transform="translate(1084.499928, 481.568806)"><g><path d="M 3.46875 0.21875 C 3.019531 0.21875 2.632812 0.0546875 2.3125 -0.265625 C 1.988281 -0.585938 1.828125 -0.984375 1.828125 -1.453125 C 1.828125 -1.910156 1.988281 -2.296875 2.3125 -2.609375 C 2.632812 -2.929688 3.019531 -3.09375 3.46875 -3.09375 C 3.925781 -3.09375 4.316406 -2.929688 4.640625 -2.609375 C 4.972656 -2.296875 5.140625 -1.910156 5.140625 -1.453125 C 5.140625 -0.984375 4.972656 -0.585938 4.640625 -0.265625 C 4.316406 0.0546875 3.925781 0.21875 3.46875 0.21875 Z M 3.46875 0.21875 "/></g></g></g><g fill="#ffffff" fill-opacity="1"><g transform="translate(1091.47157, 481.568806)"><g><path d="M 13.109375 -8.0625 C 13.109375 -6.84375 12.992188 -5.703125 12.765625 -4.640625 C 12.546875 -3.578125 12.179688 -2.660156 11.671875 -1.890625 C 11.171875 -1.128906 10.507812 -0.554688 9.6875 -0.171875 C 8.863281 0.210938 7.859375 0.34375 6.671875 0.21875 L 2.46875 -0.21875 L 2.46875 -1.40625 L 6.671875 -0.984375 C 7.628906 -0.878906 8.421875 -0.976562 9.046875 -1.28125 C 9.679688 -1.59375 10.191406 -2.03125 10.578125 -2.59375 C 10.972656 -3.164062 11.273438 -3.816406 11.484375 -4.546875 C 11.691406 -5.285156 11.835938 -6.03125 11.921875 -6.78125 L 12.34375 -7.84375 L 11.921875 -7.84375 C 11.765625 -7.144531 11.441406 -6.523438 10.953125 -5.984375 C 10.460938 -5.453125 9.847656 -5.03125 9.109375 -4.71875 C 8.367188 -4.414062 7.554688 -4.265625 6.671875 -4.265625 C 5.566406 -4.265625 4.625 -4.5 3.84375 -4.96875 C 3.0625 -5.4375 2.457031 -6.078125 2.03125 -6.890625 C 1.613281 -7.703125 1.40625 -8.625 1.40625 -9.65625 C 1.40625 -10.738281 1.640625 -11.695312 2.109375 -12.53125 C 2.578125 -13.375 3.25 -14.035156 4.125 -14.515625 C 5 -15.003906 6.039062 -15.25 7.25 -15.25 C 8.414062 -15.25 9.4375 -14.984375 10.3125 -14.453125 C 11.195312 -13.921875 11.882812 -13.117188 12.375 -12.046875 C 12.863281 -10.984375 13.109375 -9.65625 13.109375 -8.0625 Z M 11.703125 -9.875 C 11.703125 -10.5625 11.53125 -11.222656 11.1875 -11.859375 C 10.84375 -12.492188 10.332031 -13.019531 9.65625 -13.4375 C 8.988281 -13.851562 8.1875 -14.0625 7.25 -14.0625 C 5.875 -14.0625 4.789062 -13.671875 4 -12.890625 C 3.207031 -12.117188 2.8125 -11.039062 2.8125 -9.65625 C 2.8125 -8.40625 3.160156 -7.390625 3.859375 -6.609375 C 4.554688 -5.835938 5.53125 -5.453125 6.78125 -5.453125 C 7.6875 -5.453125 8.507812 -5.628906 9.25 -5.984375 C 9.988281 -6.347656 10.582031 -6.859375 11.03125 -7.515625 C 11.476562 -8.179688 11.703125 -8.96875 11.703125 -9.875 Z M 11.703125 -9.875 "/></g></g></g><g fill="#ffffff" fill-opacity="1"><g transform="translate(1105.990481, 481.568806)"><g><path d="M 8.53125 1.9375 L 14.890625 -17.359375 L 16.015625 -16.984375 L 9.65625 2.328125 Z M 6.140625 -7.265625 C 5.285156 -7.265625 4.535156 -7.460938 3.890625 -7.859375 C 3.242188 -8.253906 2.738281 -8.773438 2.375 -9.421875 C 2.007812 -10.078125 1.828125 -10.796875 1.828125 -11.578125 C 1.828125 -12.378906 2.007812 -13.101562 2.375 -13.75 C 2.738281 -14.394531 3.242188 -14.910156 3.890625 -15.296875 C 4.535156 -15.691406 5.285156 -15.890625 6.140625 -15.890625 C 7.003906 -15.890625 7.753906 -15.691406 8.390625 -15.296875 C 9.035156 -14.910156 9.539062 -14.394531 9.90625 -13.75 C 10.269531 -13.101562 10.453125 -12.378906 10.453125 -11.578125 C 10.453125 -10.796875 10.269531 -10.078125 9.90625 -9.421875 C 9.539062 -8.773438 9.035156 -8.253906 8.390625 -7.859375 C 7.753906 -7.460938 7.003906 -7.265625 6.140625 -7.265625 Z M 6.140625 -8.46875 C 6.753906 -8.46875 7.296875 -8.609375 7.765625 -8.890625 C 8.234375 -9.179688 8.597656 -9.5625 8.859375 -10.03125 C 9.117188 -10.5 9.25 -11.015625 9.25 -11.578125 C 9.25 -12.148438 9.117188 -12.671875 8.859375 -13.140625 C 8.597656 -13.609375 8.234375 -13.984375 7.765625 -14.265625 C 7.296875 -14.546875 6.753906 -14.6875 6.140625 -14.6875 C 5.523438 -14.6875 4.984375 -14.546875 4.515625 -14.265625 C 4.046875 -13.984375 3.679688 -13.609375 3.421875 -13.140625 C 3.160156 -12.671875 3.03125 -12.148438 3.03125 -11.578125 C 3.03125 -11.015625 3.160156 -10.5 3.421875 -10.03125 C 3.679688 -9.5625 4.046875 -9.179688 4.515625 -8.890625 C 4.984375 -8.609375 5.523438 -8.46875 6.140625 -8.46875 Z M 18.5625 0.21875 C 17.707031 0.21875 16.953125 0.0234375 16.296875 -0.359375 C 15.648438 -0.753906 15.144531 -1.28125 14.78125 -1.9375 C 14.425781 -2.59375 14.25 -3.3125 14.25 -4.09375 C 14.25 -4.894531 14.425781 -5.617188 14.78125 -6.265625 C 15.144531 -6.910156 15.648438 -7.425781 16.296875 -7.8125 C 16.953125 -8.207031 17.707031 -8.40625 18.5625 -8.40625 C 19.425781 -8.40625 20.175781 -8.207031 20.8125 -7.8125 C 21.457031 -7.425781 21.957031 -6.910156 22.3125 -6.265625 C 22.675781 -5.617188 22.859375 -4.894531 22.859375 -4.09375 C 22.859375 -3.3125 22.675781 -2.59375 22.3125 -1.9375 C 21.957031 -1.28125 21.457031 -0.753906 20.8125 -0.359375 C 20.175781 0.0234375 19.425781 0.21875 18.5625 0.21875 Z M 18.5625 -0.984375 C 19.164062 -0.984375 19.703125 -1.125 20.171875 -1.40625 C 20.640625 -1.6875 21.003906 -2.066406 21.265625 -2.546875 C 21.535156 -3.023438 21.671875 -3.539062 21.671875 -4.09375 C 21.671875 -4.664062 21.535156 -5.1875 21.265625 -5.65625 C 21.003906 -6.125 20.640625 -6.5 20.171875 -6.78125 C 19.703125 -7.0625 19.164062 -7.203125 18.5625 -7.203125 C 17.945312 -7.203125 17.40625 -7.0625 16.9375 -6.78125 C 16.46875 -6.5 16.097656 -6.125 15.828125 -5.65625 C 15.566406 -5.1875 15.4375 -4.664062 15.4375 -4.09375 C 15.4375 -3.539062 15.566406 -3.023438 15.828125 -2.546875 C 16.097656 -2.066406 16.46875 -1.6875 16.9375 -1.40625 C 17.40625 -1.125 17.945312 -0.984375 18.5625 -0.984375 Z M 18.5625 -0.984375 "/></g></g></g><g fill="#ffffff" fill-opacity="1"><g transform="translate(331.171521, 368.274504)"><g><path d="M 10.8125 -4.671875 L 12.8125 -4.671875 L 12.8125 -3.46875 L 10.8125 -3.46875 L 10.8125 0 L 9.40625 0 L 9.40625 -3.46875 L 1.40625 -3.46875 L 1.40625 -5.96875 C 2.53125 -6.519531 3.578125 -7.226562 4.546875 -8.09375 C 5.523438 -8.96875 6.34375 -9.988281 7 -11.15625 C 7.664062 -12.320312 8.078125 -13.613281 8.234375 -15.03125 L 9.640625 -15.03125 C 9.441406 -13.6875 9.046875 -12.398438 8.453125 -11.171875 C 7.867188 -9.941406 7.035156 -8.796875 5.953125 -7.734375 C 4.878906 -6.671875 3.503906 -5.722656 1.828125 -4.890625 L 1.828125 -4.453125 L 2.90625 -4.671875 L 9.40625 -4.671875 L 9.40625 -10.5625 L 10.8125 -10.5625 Z M 10.8125 -4.671875 "/></g></g></g><g fill="#ffffff" fill-opacity="1"><g transform="translate(344.965477, 368.274504)"><g><path d="M 1.40625 -5.3125 L 2.8125 -5.3125 C 2.8125 -3.914062 3.207031 -2.84375 4 -2.09375 C 4.789062 -1.351562 5.957031 -0.984375 7.5 -0.984375 C 8.925781 -0.984375 10.050781 -1.382812 10.875 -2.1875 C 11.695312 -2.988281 12.109375 -4.125 12.109375 -5.59375 C 12.109375 -6.8125 11.8125 -7.78125 11.21875 -8.5 C 10.632812 -9.21875 9.734375 -9.578125 8.515625 -9.578125 C 7.484375 -9.578125 6.648438 -9.359375 6.015625 -8.921875 C 5.390625 -8.492188 4.898438 -8.007812 4.546875 -7.46875 L 2.625 -8.40625 L 2.625 -15.03125 L 12.484375 -15.03125 L 12.484375 -13.84375 L 4.03125 -13.84375 L 4.03125 -9.890625 L 3.8125 -8.828125 L 4.1875 -8.609375 C 4.59375 -9.148438 5.179688 -9.644531 5.953125 -10.09375 C 6.722656 -10.539062 7.644531 -10.765625 8.71875 -10.765625 C 10.238281 -10.765625 11.414062 -10.285156 12.25 -9.328125 C 13.09375 -8.367188 13.515625 -7.078125 13.515625 -5.453125 C 13.515625 -4.296875 13.257812 -3.289062 12.75 -2.4375 C 12.25 -1.59375 11.550781 -0.9375 10.65625 -0.46875 C 9.769531 -0.0078125 8.71875 0.21875 7.5 0.21875 C 5.570312 0.21875 4.070312 -0.269531 3 -1.25 C 1.9375 -2.238281 1.40625 -3.59375 1.40625 -5.3125 Z M 1.40625 -5.3125 "/></g></g></g><g fill="#ffffff" fill-opacity="1"><g transform="translate(359.249616, 368.274504)"><g><path d="M 3.46875 0.21875 C 3.019531 0.21875 2.632812 0.0546875 2.3125 -0.265625 C 1.988281 -0.585938 1.828125 -0.984375 1.828125 -1.453125 C 1.828125 -1.910156 1.988281 -2.296875 2.3125 -2.609375 C 2.632812 -2.929688 3.019531 -3.09375 3.46875 -3.09375 C 3.925781 -3.09375 4.316406 -2.929688 4.640625 -2.609375 C 4.972656 -2.296875 5.140625 -1.910156 5.140625 -1.453125 C 5.140625 -0.984375 4.972656 -0.585938 4.640625 -0.265625 C 4.316406 0.0546875 3.925781 0.21875 3.46875 0.21875 Z M 3.46875 0.21875 "/></g></g></g><g fill="#ffffff" fill-opacity="1"><g transform="translate(364.514953, 368.274504)"><g><path d="M 1.625 -7.03125 L 1.1875 -8.21875 C 2.15625 -8.613281 2.921875 -9.160156 3.484375 -9.859375 C 4.046875 -10.566406 4.453125 -11.367188 4.703125 -12.265625 C 4.953125 -13.160156 5.082031 -14.082031 5.09375 -15.03125 L 8.015625 -15.03125 L 8.015625 0 L 6.609375 0 L 6.609375 -13.546875 L 6.828125 -14.609375 L 6.40625 -14.609375 C 6.332031 -13.546875 6.144531 -12.507812 5.84375 -11.5 C 5.539062 -10.488281 5.054688 -9.59375 4.390625 -8.8125 C 3.734375 -8.03125 2.8125 -7.4375 1.625 -7.03125 Z M 1.625 -7.03125 "/></g></g></g><g fill="#ffffff" fill-opacity="1"><g transform="translate(374.364785, 368.274504)"><g><path d="M 8.53125 1.9375 L 14.890625 -17.359375 L 16.015625 -16.984375 L 9.65625 2.328125 Z M 6.140625 -7.265625 C 5.285156 -7.265625 4.535156 -7.460938 3.890625 -7.859375 C 3.242188 -8.253906 2.738281 -8.773438 2.375 -9.421875 C 2.007812 -10.078125 1.828125 -10.796875 1.828125 -11.578125 C 1.828125 -12.378906 2.007812 -13.101562 2.375 -13.75 C 2.738281 -14.394531 3.242188 -14.910156 3.890625 -15.296875 C 4.535156 -15.691406 5.285156 -15.890625 6.140625 -15.890625 C 7.003906 -15.890625 7.753906 -15.691406 8.390625 -15.296875 C 9.035156 -14.910156 9.539062 -14.394531 9.90625 -13.75 C 10.269531 -13.101562 10.453125 -12.378906 10.453125 -11.578125 C 10.453125 -10.796875 10.269531 -10.078125 9.90625 -9.421875 C 9.539062 -8.773438 9.035156 -8.253906 8.390625 -7.859375 C 7.753906 -7.460938 7.003906 -7.265625 6.140625 -7.265625 Z M 6.140625 -8.46875 C 6.753906 -8.46875 7.296875 -8.609375 7.765625 -8.890625 C 8.234375 -9.179688 8.597656 -9.5625 8.859375 -10.03125 C 9.117188 -10.5 9.25 -11.015625 9.25 -11.578125 C 9.25 -12.148438 9.117188 -12.671875 8.859375 -13.140625 C 8.597656 -13.609375 8.234375 -13.984375 7.765625 -14.265625 C 7.296875 -14.546875 6.753906 -14.6875 6.140625 -14.6875 C 5.523438 -14.6875 4.984375 -14.546875 4.515625 -14.265625 C 4.046875 -13.984375 3.679688 -13.609375 3.421875 -13.140625 C 3.160156 -12.671875 3.03125 -12.148438 3.03125 -11.578125 C 3.03125 -11.015625 3.160156 -10.5 3.421875 -10.03125 C 3.679688 -9.5625 4.046875 -9.179688 4.515625 -8.890625 C 4.984375 -8.609375 5.523438 -8.46875 6.140625 -8.46875 Z M 18.5625 0.21875 C 17.707031 0.21875 16.953125 0.0234375 16.296875 -0.359375 C 15.648438 -0.753906 15.144531 -1.28125 14.78125 -1.9375 C 14.425781 -2.59375 14.25 -3.3125 14.25 -4.09375 C 14.25 -4.894531 14.425781 -5.617188 14.78125 -6.265625 C 15.144531 -6.910156 15.648438 -7.425781 16.296875 -7.8125 C 16.953125 -8.207031 17.707031 -8.40625 18.5625 -8.40625 C 19.425781 -8.40625 20.175781 -8.207031 20.8125 -7.8125 C 21.457031 -7.425781 21.957031 -6.910156 22.3125 -6.265625 C 22.675781 -5.617188 22.859375 -4.894531 22.859375 -4.09375 C 22.859375 -3.3125 22.675781 -2.59375 22.3125 -1.9375 C 21.957031 -1.28125 21.457031 -0.753906 20.8125 -0.359375 C 20.175781 0.0234375 19.425781 0.21875 18.5625 0.21875 Z M 18.5625 -0.984375 C 19.164062 -0.984375 19.703125 -1.125 20.171875 -1.40625 C 20.640625 -1.6875 21.003906 -2.066406 21.265625 -2.546875 C 21.535156 -3.023438 21.671875 -3.539062 21.671875 -4.09375 C 21.671875 -4.664062 21.535156 -5.1875 21.265625 -5.65625 C 21.003906 -6.125 20.640625 -6.5 20.171875 -6.78125 C 19.703125 -7.0625 19.164062 -7.203125 18.5625 -7.203125 C 17.945312 -7.203125 17.40625 -7.0625 16.9375 -6.78125 C 16.46875 -6.5 16.097656 -6.125 15.828125 -5.65625 C 15.566406 -5.1875 15.4375 -4.664062 15.4375 -4.09375 C 15.4375 -3.539062 15.566406 -3.023438 15.828125 -2.546875 C 16.097656 -2.066406 16.46875 -1.6875 16.9375 -1.40625 C 17.40625 -1.125 17.945312 -0.984375 18.5625 -0.984375 Z M 18.5625 -0.984375 "/></g></g></g><g fill="#5540d8" fill-opacity="1"><g transform="translate(843.128741, 422.999999)"><g><path d="M 4.484375 0.234375 L 0.75 0 L 0.75 -1.609375 L 4.484375 -1.375 C 5.390625 -1.332031 6.054688 -1.5 6.484375 -1.875 C 6.910156 -2.257812 7.1875 -2.898438 7.3125 -3.796875 C 7.445312 -4.703125 7.515625 -5.910156 7.515625 -7.421875 L 7.515625 -14.765625 L 3.265625 -14.53125 L 3.265625 -16.140625 L 7.984375 -16.359375 C 8.429688 -16.390625 8.769531 -16.28125 9 -16.03125 C 9.238281 -15.78125 9.359375 -15.4375 9.359375 -15 L 9.359375 -7.203125 C 9.359375 -6.046875 9.304688 -5 9.203125 -4.0625 C 9.109375 -3.125 8.894531 -2.320312 8.5625 -1.65625 C 8.238281 -0.988281 7.753906 -0.488281 7.109375 -0.15625 C 6.460938 0.164062 5.585938 0.296875 4.484375 0.234375 Z M 4.484375 0.234375 "/></g></g></g><g fill="#5540d8" fill-opacity="1"><g transform="translate(853.954176, 422.999999)"><g><path d="M 1.21875 -3.15625 C 1.21875 -4.0625 1.503906 -4.804688 2.078125 -5.390625 C 2.660156 -5.972656 3.613281 -6.335938 4.9375 -6.484375 L 9.484375 -6.90625 C 9.421875 -7.945312 9.117188 -8.726562 8.578125 -9.25 C 8.035156 -9.769531 7.265625 -10.03125 6.265625 -10.03125 C 5.722656 -10.03125 5.207031 -9.9375 4.71875 -9.75 C 4.238281 -9.570312 3.847656 -9.269531 3.546875 -8.84375 C 3.242188 -8.425781 3.09375 -7.859375 3.09375 -7.140625 L 1.265625 -7.140625 C 1.265625 -7.929688 1.457031 -8.660156 1.84375 -9.328125 C 2.226562 -10.003906 2.796875 -10.550781 3.546875 -10.96875 C 4.296875 -11.394531 5.203125 -11.609375 6.265625 -11.609375 C 7.335938 -11.609375 8.25 -11.390625 9 -10.953125 C 9.757812 -10.515625 10.34375 -9.910156 10.75 -9.140625 C 11.15625 -8.367188 11.359375 -7.472656 11.359375 -6.453125 L 11.359375 -1.609375 L 13.03125 -1.609375 L 13.03125 0 L 11.015625 0 C 10.109375 0 9.65625 -0.441406 9.65625 -1.328125 L 9.65625 -1.953125 L 9.953125 -3.140625 L 9.40625 -3.140625 C 9.269531 -2.554688 9.03125 -2.007812 8.6875 -1.5 C 8.34375 -0.988281 7.875 -0.570312 7.28125 -0.25 C 6.6875 0.0703125 5.929688 0.234375 5.015625 0.234375 C 4.191406 0.234375 3.523438 0.113281 3.015625 -0.125 C 2.515625 -0.363281 2.132812 -0.660156 1.875 -1.015625 C 1.613281 -1.378906 1.4375 -1.753906 1.34375 -2.140625 C 1.257812 -2.523438 1.21875 -2.863281 1.21875 -3.15625 Z M 3.09375 -3.390625 C 3.09375 -2.734375 3.285156 -2.234375 3.671875 -1.890625 C 4.054688 -1.546875 4.578125 -1.375 5.234375 -1.375 C 6.109375 -1.375 6.863281 -1.554688 7.5 -1.921875 C 8.132812 -2.285156 8.625 -2.78125 8.96875 -3.40625 C 9.3125 -4.03125 9.484375 -4.734375 9.484375 -5.515625 L 5.265625 -5.078125 C 4.546875 -5.015625 4.003906 -4.859375 3.640625 -4.609375 C 3.273438 -4.359375 3.09375 -3.953125 3.09375 -3.390625 Z M 3.09375 -3.390625 "/></g></g></g><g fill="#5540d8" fill-opacity="1"><g transform="translate(867.503133, 422.999999)"><g><path d="M 11.65625 0 L 1.21875 0 L 1.21875 -3.40625 L 10.734375 -9.515625 L 10.734375 -10.078125 L 9.8125 -9.78125 L 1.21875 -9.78125 L 1.21875 -11.375 L 11.65625 -11.375 L 11.65625 -7.96875 L 2.125 -1.859375 L 2.125 -1.3125 L 3.046875 -1.609375 L 11.65625 -1.609375 Z M 11.65625 0 "/></g></g></g><g fill="#5540d8" fill-opacity="1"><g transform="translate(880.365491, 422.999999)"><g><path d="M 11.65625 0 L 1.21875 0 L 1.21875 -3.40625 L 10.734375 -9.515625 L 10.734375 -10.078125 L 9.8125 -9.78125 L 1.21875 -9.78125 L 1.21875 -11.375 L 11.65625 -11.375 L 11.65625 -7.96875 L 2.125 -1.859375 L 2.125 -1.3125 L 3.046875 -1.609375 L 11.65625 -1.609375 Z M 11.65625 0 "/></g></g></g><g fill="#ffffff" fill-opacity="1"><g transform="translate(551.146234, 66.750017)"><g><path d="M 1.71875 -28.203125 L 24.5625 -28.203125 L 24.5625 -25.40625 L 14.796875 -25.40625 L 14.796875 0 L 11.5625 0 L 11.5625 -25.40625 L 1.71875 -25.40625 Z M 1.71875 -28.203125 "/></g></g></g><g fill="#ffffff" fill-opacity="1"><g transform="translate(577.463616, 66.750017)"><g><path d="M 2.125 -9.953125 C 2.125 -11.878906 2.554688 -13.617188 3.421875 -15.171875 C 4.285156 -16.734375 5.507812 -17.972656 7.09375 -18.890625 C 8.6875 -19.816406 10.535156 -20.28125 12.640625 -20.28125 C 14.742188 -20.28125 16.578125 -19.816406 18.140625 -18.890625 C 19.703125 -17.972656 20.914062 -16.734375 21.78125 -15.171875 C 22.644531 -13.617188 23.078125 -11.878906 23.078125 -9.953125 C 23.078125 -8.035156 22.644531 -6.289062 21.78125 -4.71875 C 20.914062 -3.144531 19.703125 -1.894531 18.140625 -0.96875 C 16.578125 -0.0507812 14.742188 0.40625 12.640625 0.40625 C 10.535156 0.40625 8.6875 -0.0507812 7.09375 -0.96875 C 5.507812 -1.894531 4.285156 -3.144531 3.421875 -4.71875 C 2.554688 -6.289062 2.125 -8.035156 2.125 -9.953125 Z M 5.40625 -9.953125 C 5.40625 -8.566406 5.675781 -7.300781 6.21875 -6.15625 C 6.769531 -5.007812 7.582031 -4.097656 8.65625 -3.421875 C 9.738281 -2.742188 11.066406 -2.40625 12.640625 -2.40625 C 14.210938 -2.40625 15.53125 -2.742188 16.59375 -3.421875 C 17.664062 -4.097656 18.472656 -5.007812 19.015625 -6.15625 C 19.566406 -7.300781 19.84375 -8.566406 19.84375 -9.953125 C 19.84375 -11.347656 19.566406 -12.609375 19.015625 -13.734375 C 18.472656 -14.867188 17.664062 -15.773438 16.59375 -16.453125 C 15.53125 -17.140625 14.210938 -17.484375 12.640625 -17.484375 C 11.066406 -17.484375 9.738281 -17.140625 8.65625 -16.453125 C 7.582031 -15.773438 6.769531 -14.867188 6.21875 -13.734375 C 5.675781 -12.609375 5.40625 -11.347656 5.40625 -9.953125 Z M 5.40625 -9.953125 "/></g></g></g><g fill="#ffffff" fill-opacity="1"><g transform="translate(602.70111, 66.750017)"><g><path d="M 8.5625 -17.078125 L 8.5625 -2.359375 L 15.5625 -2.796875 L 15.5625 0 L 8.046875 0.40625 C 7.109375 0.457031 6.414062 0.242188 5.96875 -0.234375 C 5.53125 -0.710938 5.3125 -1.40625 5.3125 -2.3125 L 5.3125 -17.078125 L 0.921875 -17.078125 L 0.921875 -19.875 L 5.3125 -19.875 L 5.3125 -25 L 8.5625 -26 L 8.5625 -19.875 L 14.765625 -19.875 L 14.765625 -17.078125 Z M 8.5625 -17.078125 "/></g></g></g><g fill="#ffffff" fill-opacity="1"><g transform="translate(620.019385, 66.750017)"><g><path d="M 2.125 -5.515625 C 2.125 -7.085938 2.628906 -8.382812 3.640625 -9.40625 C 4.648438 -10.4375 6.316406 -11.070312 8.640625 -11.3125 L 16.5625 -12.078125 C 16.457031 -13.890625 15.929688 -15.25 14.984375 -16.15625 C 14.035156 -17.0625 12.691406 -17.515625 10.953125 -17.515625 C 9.992188 -17.515625 9.09375 -17.351562 8.25 -17.03125 C 7.414062 -16.71875 6.734375 -16.191406 6.203125 -15.453125 C 5.671875 -14.722656 5.40625 -13.734375 5.40625 -12.484375 L 2.203125 -12.484375 C 2.203125 -13.867188 2.539062 -15.144531 3.21875 -16.3125 C 3.894531 -17.488281 4.882812 -18.441406 6.1875 -19.171875 C 7.5 -19.910156 9.085938 -20.28125 10.953125 -20.28125 C 12.828125 -20.28125 14.421875 -19.898438 15.734375 -19.140625 C 17.054688 -18.378906 18.070312 -17.320312 18.78125 -15.96875 C 19.488281 -14.625 19.84375 -13.0625 19.84375 -11.28125 L 19.84375 -2.796875 L 22.765625 -2.796875 L 22.765625 0 L 19.234375 0 C 17.660156 0 16.875 -0.769531 16.875 -2.3125 L 16.875 -3.40625 L 17.40625 -5.484375 L 16.4375 -5.484375 C 16.195312 -4.460938 15.773438 -3.503906 15.171875 -2.609375 C 14.578125 -1.722656 13.757812 -1 12.71875 -0.4375 C 11.675781 0.125 10.359375 0.40625 8.765625 0.40625 C 7.316406 0.40625 6.148438 0.195312 5.265625 -0.21875 C 4.390625 -0.632812 3.722656 -1.15625 3.265625 -1.78125 C 2.816406 -2.40625 2.515625 -3.054688 2.359375 -3.734375 C 2.203125 -4.421875 2.125 -5.015625 2.125 -5.515625 Z M 5.40625 -5.921875 C 5.40625 -4.773438 5.742188 -3.898438 6.421875 -3.296875 C 7.097656 -2.703125 8.007812 -2.40625 9.15625 -2.40625 C 10.675781 -2.40625 11.988281 -2.722656 13.09375 -3.359375 C 14.207031 -3.992188 15.0625 -4.859375 15.65625 -5.953125 C 16.257812 -7.046875 16.5625 -8.273438 16.5625 -9.640625 L 9.203125 -8.875 C 7.941406 -8.769531 6.992188 -8.5 6.359375 -8.0625 C 5.722656 -7.625 5.40625 -6.910156 5.40625 -5.921875 Z M 5.40625 -5.921875 "/></g></g></g><g fill="#ffffff" fill-opacity="1"><g transform="translate(643.697038, 66.750017)"><g><path d="M 16.125 0 L 1.71875 0 L 1.71875 -2.796875 L 7.3125 -2.796875 L 7.3125 -26.953125 L 3.203125 -26.59375 L 3.203125 -29.40625 L 7.84375 -29.796875 C 8.769531 -29.878906 9.453125 -29.671875 9.890625 -29.171875 C 10.335938 -28.679688 10.5625 -27.972656 10.5625 -27.046875 L 10.5625 -2.796875 L 16.125 -2.796875 Z M 16.125 0 "/></g></g></g><g fill="#ffffff" fill-opacity="1"><g transform="translate(661.175301, 66.750017)"><g/></g></g><g fill="#ffffff" fill-opacity="1"><g transform="translate(674.453983, 66.750017)"><g><path d="M 7.515625 0 L 1.3125 -28.203125 L 4.4375 -28.203125 L 10.203125 -1.59375 L 11.15625 -1.59375 L 17.078125 -28.203125 L 23.484375 -28.203125 L 29.359375 -1.59375 L 30.3125 -1.59375 L 36.078125 -28.203125 L 39.203125 -28.203125 L 33 0 L 26.6875 0 L 20.71875 -26.59375 L 19.796875 -26.59375 L 13.84375 0 Z M 7.515625 0 "/></g></g></g><g fill="#ffffff" fill-opacity="1"><g transform="translate(714.969957, 66.750017)"><g><path d="M 2.125 -9.953125 C 2.125 -11.878906 2.554688 -13.617188 3.421875 -15.171875 C 4.285156 -16.734375 5.507812 -17.972656 7.09375 -18.890625 C 8.6875 -19.816406 10.535156 -20.28125 12.640625 -20.28125 C 14.742188 -20.28125 16.578125 -19.816406 18.140625 -18.890625 C 19.703125 -17.972656 20.914062 -16.734375 21.78125 -15.171875 C 22.644531 -13.617188 23.078125 -11.878906 23.078125 -9.953125 C 23.078125 -8.035156 22.644531 -6.289062 21.78125 -4.71875 C 20.914062 -3.144531 19.703125 -1.894531 18.140625 -0.96875 C 16.578125 -0.0507812 14.742188 0.40625 12.640625 0.40625 C 10.535156 0.40625 8.6875 -0.0507812 7.09375 -0.96875 C 5.507812 -1.894531 4.285156 -3.144531 3.421875 -4.71875 C 2.554688 -6.289062 2.125 -8.035156 2.125 -9.953125 Z M 5.40625 -9.953125 C 5.40625 -8.566406 5.675781 -7.300781 6.21875 -6.15625 C 6.769531 -5.007812 7.582031 -4.097656 8.65625 -3.421875 C 9.738281 -2.742188 11.066406 -2.40625 12.640625 -2.40625 C 14.210938 -2.40625 15.53125 -2.742188 16.59375 -3.421875 C 17.664062 -4.097656 18.472656 -5.007812 19.015625 -6.15625 C 19.566406 -7.300781 19.84375 -8.566406 19.84375 -9.953125 C 19.84375 -11.347656 19.566406 -12.609375 19.015625 -13.734375 C 18.472656 -14.867188 17.664062 -15.773438 16.59375 -16.453125 C 15.53125 -17.140625 14.210938 -17.484375 12.640625 -17.484375 C 11.066406 -17.484375 9.738281 -17.140625 8.65625 -16.453125 C 7.582031 -15.773438 6.769531 -14.867188 6.21875 -13.734375 C 5.675781 -12.609375 5.40625 -11.347656 5.40625 -9.953125 Z M 5.40625 -9.953125 "/></g></g></g><g fill="#ffffff" fill-opacity="1"><g transform="translate(740.207451, 66.750017)"><g><path d="M 6.203125 0 L 2.921875 0 L 2.921875 -17.515625 C 2.921875 -19.410156 3.84375 -20.316406 5.6875 -20.234375 L 16.71875 -19.875 L 16.71875 -17.078125 L 6.203125 -17.4375 Z M 6.203125 0 "/></g></g></g><g fill="#ffffff" fill-opacity="1"><g transform="translate(757.845702, 66.750017)"><g><path d="M 23.3125 -29.40625 L 23.3125 0 L 20.046875 0 L 20.046875 -2.921875 L 20.59375 -5.15625 L 19.640625 -5.15625 C 19.210938 -3.613281 18.332031 -2.300781 17 -1.21875 C 15.664062 -0.132812 13.863281 0.40625 11.59375 0.40625 C 9.675781 0.40625 8.007812 -0.046875 6.59375 -0.953125 C 5.1875 -1.859375 4.085938 -3.09375 3.296875 -4.65625 C 2.515625 -6.21875 2.125 -7.984375 2.125 -9.953125 C 2.125 -11.929688 2.515625 -13.691406 3.296875 -15.234375 C 4.085938 -16.785156 5.1875 -18.015625 6.59375 -18.921875 C 8.007812 -19.828125 9.675781 -20.28125 11.59375 -20.28125 C 13.863281 -20.28125 15.664062 -19.738281 17 -18.65625 C 18.332031 -17.582031 19.210938 -16.257812 19.640625 -14.6875 L 20.59375 -14.6875 L 20.046875 -16.953125 L 20.046875 -29.40625 Z M 20.046875 -9.953125 C 20.046875 -11.710938 19.703125 -13.144531 19.015625 -14.25 C 18.335938 -15.363281 17.4375 -16.179688 16.3125 -16.703125 C 15.195312 -17.222656 13.945312 -17.484375 12.5625 -17.484375 C 10.507812 -17.484375 8.800781 -16.890625 7.4375 -15.703125 C 6.082031 -14.515625 5.40625 -12.597656 5.40625 -9.953125 C 5.40625 -7.285156 6.082031 -5.359375 7.4375 -4.171875 C 8.800781 -2.992188 10.507812 -2.40625 12.5625 -2.40625 C 13.945312 -2.40625 15.195312 -2.660156 16.3125 -3.171875 C 17.4375 -3.691406 18.335938 -4.507812 19.015625 -5.625 C 19.703125 -6.75 20.046875 -8.191406 20.046875 -9.953125 Z M 20.046875 -9.953125 "/></g></g></g><g fill="#ffffff" fill-opacity="1"><g transform="translate(784.123075, 66.750017)"><g><path d="M 18.640625 -5.15625 C 18.640625 -4.175781 18.398438 -3.257812 17.921875 -2.40625 C 17.441406 -1.550781 16.632812 -0.867188 15.5 -0.359375 C 14.363281 0.148438 12.796875 0.40625 10.796875 0.40625 C 7.566406 0.40625 5.242188 -0.289062 3.828125 -1.6875 C 2.421875 -3.09375 1.71875 -4.96875 1.71875 -7.3125 L 5 -7.3125 C 5 -3.957031 6.945312 -2.28125 10.84375 -2.28125 C 12.382812 -2.28125 13.519531 -2.484375 14.25 -2.890625 C 14.988281 -3.304688 15.359375 -4.023438 15.359375 -5.046875 C 15.359375 -5.921875 15.09375 -6.582031 14.5625 -7.03125 C 14.03125 -7.488281 13.316406 -7.863281 12.421875 -8.15625 C 11.523438 -8.445312 10.53125 -8.753906 9.4375 -9.078125 C 8.1875 -9.484375 7.046875 -9.910156 6.015625 -10.359375 C 4.992188 -10.816406 4.175781 -11.410156 3.5625 -12.140625 C 2.945312 -12.867188 2.640625 -13.835938 2.640625 -15.046875 C 2.640625 -16.617188 3.28125 -17.882812 4.5625 -18.84375 C 5.84375 -19.800781 7.613281 -20.28125 9.875 -20.28125 C 11.957031 -20.28125 13.582031 -19.953125 14.75 -19.296875 C 15.925781 -18.640625 16.753906 -17.796875 17.234375 -16.765625 C 17.710938 -15.742188 17.953125 -14.6875 17.953125 -13.59375 L 14.6875 -13.59375 C 14.6875 -16.257812 13.082031 -17.59375 9.875 -17.59375 C 8.78125 -17.59375 7.847656 -17.410156 7.078125 -17.046875 C 6.304688 -16.691406 5.921875 -16.0625 5.921875 -15.15625 C 5.921875 -14.195312 6.28125 -13.5 7 -13.0625 C 7.71875 -12.625 8.878906 -12.132812 10.484375 -11.59375 C 11.460938 -11.28125 12.429688 -10.960938 13.390625 -10.640625 C 14.359375 -10.316406 15.234375 -9.9375 16.015625 -9.5 C 16.804688 -9.0625 17.441406 -8.492188 17.921875 -7.796875 C 18.398438 -7.109375 18.640625 -6.226562 18.640625 -5.15625 Z M 18.640625 -5.15625 "/></g></g></g><g fill="#ffffff" fill-opacity="1"><g transform="translate(804.08109, 66.750017)"><g/></g></g><g fill="#ffffff" fill-opacity="1"><g transform="translate(817.359783, 66.750017)"><g><path d="M 25.3125 -7.125 C 25.3125 -5.738281 24.984375 -4.46875 24.328125 -3.3125 C 23.679688 -2.164062 22.570312 -1.257812 21 -0.59375 C 19.425781 0.0703125 17.253906 0.40625 14.484375 0.40625 C 11.203125 0.40625 8.632812 -0.046875 6.78125 -0.953125 C 4.925781 -1.859375 3.617188 -3.140625 2.859375 -4.796875 C 2.097656 -6.453125 1.71875 -8.375 1.71875 -10.5625 L 5 -10.5625 C 5 -8.34375 5.378906 -6.640625 6.140625 -5.453125 C 6.898438 -4.273438 7.984375 -3.472656 9.390625 -3.046875 C 10.804688 -2.617188 12.503906 -2.40625 14.484375 -2.40625 C 16.878906 -2.40625 18.738281 -2.738281 20.0625 -3.40625 C 21.382812 -4.070312 22.046875 -5.253906 22.046875 -6.953125 C 22.046875 -8.023438 21.765625 -8.90625 21.203125 -9.59375 C 20.640625 -10.289062 19.90625 -10.863281 19 -11.3125 C 18.09375 -11.769531 17.078125 -12.15625 15.953125 -12.46875 C 14.835938 -12.789062 13.71875 -13.113281 12.59375 -13.4375 C 10.757812 -14 9.113281 -14.59375 7.65625 -15.21875 C 6.207031 -15.84375 5.066406 -16.65625 4.234375 -17.65625 C 3.410156 -18.65625 3 -19.984375 3 -21.640625 C 3 -23.796875 3.796875 -25.492188 5.390625 -26.734375 C 6.992188 -27.972656 9.53125 -28.59375 13 -28.59375 C 15.082031 -28.59375 16.835938 -28.304688 18.265625 -27.734375 C 19.691406 -27.160156 20.835938 -26.40625 21.703125 -25.46875 C 22.566406 -24.539062 23.191406 -23.503906 23.578125 -22.359375 C 23.960938 -21.210938 24.15625 -20.066406 24.15625 -18.921875 L 20.875 -18.921875 C 20.875 -20.515625 20.519531 -21.816406 19.8125 -22.828125 C 19.113281 -23.847656 18.160156 -24.597656 16.953125 -25.078125 C 15.753906 -25.554688 14.4375 -25.796875 13 -25.796875 C 11.71875 -25.796875 10.570312 -25.675781 9.5625 -25.4375 C 8.550781 -25.195312 7.75 -24.773438 7.15625 -24.171875 C 6.570312 -23.578125 6.28125 -22.757812 6.28125 -21.71875 C 6.28125 -20.726562 6.550781 -19.921875 7.09375 -19.296875 C 7.644531 -18.671875 8.445312 -18.125 9.5 -17.65625 C 10.550781 -17.1875 11.851562 -16.710938 13.40625 -16.234375 C 14.789062 -15.804688 16.179688 -15.359375 17.578125 -14.890625 C 18.984375 -14.429688 20.269531 -13.878906 21.4375 -13.234375 C 22.613281 -12.597656 23.550781 -11.785156 24.25 -10.796875 C 24.957031 -9.804688 25.3125 -8.582031 25.3125 -7.125 Z M 25.3125 -7.125 "/></g></g></g><g fill="#ffffff" fill-opacity="1"><g transform="translate(844.39709, 66.750017)"><g><path d="M 2.125 -10.203125 C 2.125 -12.335938 2.535156 -14.15625 3.359375 -15.65625 C 4.179688 -17.164062 5.316406 -18.3125 6.765625 -19.09375 C 8.222656 -19.882812 9.890625 -20.28125 11.765625 -20.28125 C 14.554688 -20.28125 16.800781 -19.429688 18.5 -17.734375 C 20.195312 -16.046875 21.046875 -13.664062 21.046875 -10.59375 L 21.046875 -9.3125 L 5.3125 -9.3125 C 5.394531 -8.0625 5.660156 -6.898438 6.109375 -5.828125 C 6.566406 -4.765625 7.296875 -3.910156 8.296875 -3.265625 C 9.296875 -2.628906 10.609375 -2.3125 12.234375 -2.3125 C 13.890625 -2.3125 15.25 -2.707031 16.3125 -3.5 C 17.382812 -4.289062 18.09375 -5.441406 18.4375 -6.953125 L 21.71875 -6.953125 C 21.53125 -6.179688 21.222656 -5.367188 20.796875 -4.515625 C 20.367188 -3.660156 19.785156 -2.859375 19.046875 -2.109375 C 18.316406 -1.367188 17.390625 -0.765625 16.265625 -0.296875 C 15.148438 0.171875 13.804688 0.40625 12.234375 0.40625 C 9.867188 0.40625 7.9375 -0.078125 6.4375 -1.046875 C 4.945312 -2.023438 3.851562 -3.320312 3.15625 -4.9375 C 2.46875 -6.550781 2.125 -8.304688 2.125 -10.203125 Z M 5.3125 -11.796875 L 17.84375 -11.796875 C 17.84375 -13.398438 17.320312 -14.753906 16.28125 -15.859375 C 15.238281 -16.960938 13.734375 -17.515625 11.765625 -17.515625 C 9.816406 -17.515625 8.253906 -16.960938 7.078125 -15.859375 C 5.898438 -14.753906 5.3125 -13.398438 5.3125 -11.796875 Z M 5.3125 -11.796875 "/></g></g></g><g fill="#ffffff" fill-opacity="1"><g transform="translate(868.23472, 66.750017)"><g><path d="M 13.359375 -17.484375 C 11.253906 -17.484375 9.535156 -16.707031 8.203125 -15.15625 C 6.867188 -13.613281 6.203125 -11.492188 6.203125 -8.796875 L 6.203125 0 L 2.921875 0 L 2.921875 -19.875 L 6.203125 -19.875 L 6.203125 -16.4375 L 5.6875 -14.15625 L 6.59375 -14.15625 C 7 -15.96875 7.832031 -17.441406 9.09375 -18.578125 C 10.363281 -19.710938 12.078125 -20.28125 14.234375 -20.28125 C 16.472656 -20.28125 18.265625 -19.617188 19.609375 -18.296875 C 20.960938 -16.972656 21.640625 -14.925781 21.640625 -12.15625 L 21.640625 0 L 18.40625 0 L 18.40625 -11.71875 C 18.40625 -13.800781 17.988281 -15.28125 17.15625 -16.15625 C 16.332031 -17.039062 15.066406 -17.484375 13.359375 -17.484375 Z M 13.359375 -17.484375 "/></g></g></g><g fill="#ffffff" fill-opacity="1"><g transform="translate(892.432312, 66.750017)"><g><path d="M 8.5625 -17.078125 L 8.5625 -2.359375 L 15.5625 -2.796875 L 15.5625 0 L 8.046875 0.40625 C 7.109375 0.457031 6.414062 0.242188 5.96875 -0.234375 C 5.53125 -0.710938 5.3125 -1.40625 5.3125 -2.3125 L 5.3125 -17.078125 L 0.921875 -17.078125 L 0.921875 -19.875 L 5.3125 -19.875 L 5.3125 -25 L 8.5625 -26 L 8.5625 -19.875 L 14.765625 -19.875 L 14.765625 -17.078125 Z M 8.5625 -17.078125 "/></g></g></g><g fill="#ffffff" fill-opacity="1"><g transform="translate(843.611731, 414.374999)"><g><path d="M 7.84375 0.40625 L 1.3125 0 L 1.3125 -2.796875 L 7.84375 -2.40625 C 9.414062 -2.320312 10.570312 -2.613281 11.3125 -3.28125 C 12.0625 -3.945312 12.550781 -5.066406 12.78125 -6.640625 C 13.007812 -8.210938 13.125 -10.316406 13.125 -12.953125 L 13.125 -25.796875 L 5.71875 -25.40625 L 5.71875 -28.203125 L 13.953125 -28.59375 C 14.734375 -28.65625 15.328125 -28.460938 15.734375 -28.015625 C 16.148438 -27.578125 16.359375 -26.972656 16.359375 -26.203125 L 16.359375 -12.59375 C 16.359375 -10.570312 16.269531 -8.738281 16.09375 -7.09375 C 15.925781 -5.457031 15.554688 -4.054688 14.984375 -2.890625 C 14.410156 -1.734375 13.554688 -0.867188 12.421875 -0.296875 C 11.285156 0.273438 9.757812 0.507812 7.84375 0.40625 Z M 7.84375 0.40625 "/></g></g></g><g fill="#ffffff" fill-opacity="1"><g transform="translate(862.529855, 414.374999)"><g><path d="M 2.125 -5.515625 C 2.125 -7.085938 2.628906 -8.382812 3.640625 -9.40625 C 4.648438 -10.4375 6.316406 -11.070312 8.640625 -11.3125 L 16.5625 -12.078125 C 16.457031 -13.890625 15.929688 -15.25 14.984375 -16.15625 C 14.035156 -17.0625 12.691406 -17.515625 10.953125 -17.515625 C 9.992188 -17.515625 9.09375 -17.351562 8.25 -17.03125 C 7.414062 -16.71875 6.734375 -16.191406 6.203125 -15.453125 C 5.671875 -14.722656 5.40625 -13.734375 5.40625 -12.484375 L 2.203125 -12.484375 C 2.203125 -13.867188 2.539062 -15.144531 3.21875 -16.3125 C 3.894531 -17.488281 4.882812 -18.441406 6.1875 -19.171875 C 7.5 -19.910156 9.085938 -20.28125 10.953125 -20.28125 C 12.828125 -20.28125 14.421875 -19.898438 15.734375 -19.140625 C 17.054688 -18.378906 18.070312 -17.320312 18.78125 -15.96875 C 19.488281 -14.625 19.84375 -13.0625 19.84375 -11.28125 L 19.84375 -2.796875 L 22.765625 -2.796875 L 22.765625 0 L 19.234375 0 C 17.660156 0 16.875 -0.769531 16.875 -2.3125 L 16.875 -3.40625 L 17.40625 -5.484375 L 16.4375 -5.484375 C 16.195312 -4.460938 15.773438 -3.503906 15.171875 -2.609375 C 14.578125 -1.722656 13.757812 -1 12.71875 -0.4375 C 11.675781 0.125 10.359375 0.40625 8.765625 0.40625 C 7.316406 0.40625 6.148438 0.195312 5.265625 -0.21875 C 4.390625 -0.632812 3.722656 -1.15625 3.265625 -1.78125 C 2.816406 -2.40625 2.515625 -3.054688 2.359375 -3.734375 C 2.203125 -4.421875 2.125 -5.015625 2.125 -5.515625 Z M 5.40625 -5.921875 C 5.40625 -4.773438 5.742188 -3.898438 6.421875 -3.296875 C 7.097656 -2.703125 8.007812 -2.40625 9.15625 -2.40625 C 10.675781 -2.40625 11.988281 -2.722656 13.09375 -3.359375 C 14.207031 -3.992188 15.0625 -4.859375 15.65625 -5.953125 C 16.257812 -7.046875 16.5625 -8.273438 16.5625 -9.640625 L 9.203125 -8.875 C 7.941406 -8.769531 6.992188 -8.5 6.359375 -8.0625 C 5.722656 -7.625 5.40625 -6.910156 5.40625 -5.921875 Z M 5.40625 -5.921875 "/></g></g></g><g fill="#ffffff" fill-opacity="1"><g transform="translate(886.207508, 414.374999)"><g><path d="M 20.359375 0 L 2.125 0 L 2.125 -5.953125 L 18.765625 -16.640625 L 18.765625 -17.59375 L 17.15625 -17.078125 L 2.125 -17.078125 L 2.125 -19.875 L 20.359375 -19.875 L 20.359375 -13.921875 L 3.71875 -3.234375 L 3.71875 -2.28125 L 5.3125 -2.796875 L 20.359375 -2.796875 Z M 20.359375 0 "/></g></g></g><g fill="#ffffff" fill-opacity="1"><g transform="translate(908.685271, 414.374999)"><g><path d="M 20.359375 0 L 2.125 0 L 2.125 -5.953125 L 18.765625 -16.640625 L 18.765625 -17.59375 L 17.15625 -17.078125 L 2.125 -17.078125 L 2.125 -19.875 L 20.359375 -19.875 L 20.359375 -13.921875 L 3.71875 -3.234375 L 3.71875 -2.28125 L 5.3125 -2.796875 L 20.359375 -2.796875 Z M 20.359375 0 "/></g></g></g><g fill="#ffffff" fill-opacity="1"><g transform="translate(519.726607, 421.146092)"><g><path d="M 6.203125 0 L 2.921875 0 L 2.921875 -28.203125 L 9.515625 -28.203125 L 17.515625 -1.59375 L 18.4375 -1.59375 L 26.484375 -28.203125 L 33.046875 -28.203125 L 33.046875 0 L 29.765625 0 L 29.765625 -24.921875 L 30.3125 -26.59375 L 29.28125 -26.59375 L 21.234375 0 L 14.765625 0 L 6.71875 -26.59375 L 5.6875 -26.59375 L 6.203125 -24.921875 Z M 6.203125 0 "/></g></g></g><g fill="#ffffff" fill-opacity="1"><g transform="translate(555.683038, 421.146092)"><g><path d="M 8.765625 -23.046875 C 7.929688 -23.046875 7.238281 -23.3125 6.6875 -23.84375 C 6.144531 -24.375 5.875 -25.039062 5.875 -25.84375 C 5.875 -26.613281 6.144531 -27.265625 6.6875 -27.796875 C 7.238281 -28.328125 7.929688 -28.59375 8.765625 -28.59375 C 9.554688 -28.59375 10.234375 -28.328125 10.796875 -27.796875 C 11.359375 -27.265625 11.640625 -26.613281 11.640625 -25.84375 C 11.640625 -25.039062 11.359375 -24.375 10.796875 -23.84375 C 10.234375 -23.3125 9.554688 -23.046875 8.765625 -23.046875 Z M 16.40625 0 L 2.125 0 L 2.125 -2.796875 L 7.71875 -2.796875 L 7.71875 -17.4375 L 3.59375 -17.078125 L 3.59375 -19.875 L 8.203125 -20.28125 C 9.128906 -20.363281 9.789062 -20.175781 10.1875 -19.71875 C 10.59375 -19.269531 10.796875 -18.65625 10.796875 -17.875 L 10.796875 -2.796875 L 16.40625 -2.796875 Z M 16.40625 0 "/></g></g></g><g fill="#ffffff" fill-opacity="1"><g transform="translate(573.401272, 421.146092)"><g><path d="M 6.203125 0 L 2.921875 0 L 2.921875 -17.515625 C 2.921875 -19.410156 3.84375 -20.316406 5.6875 -20.234375 L 16.71875 -19.875 L 16.71875 -17.078125 L 6.203125 -17.4375 Z M 6.203125 0 "/></g></g></g><g fill="#ffffff" fill-opacity="1"><g transform="translate(591.039523, 421.146092)"><g><path d="M 2.125 -5.515625 C 2.125 -7.085938 2.628906 -8.382812 3.640625 -9.40625 C 4.648438 -10.4375 6.316406 -11.070312 8.640625 -11.3125 L 16.5625 -12.078125 C 16.457031 -13.890625 15.929688 -15.25 14.984375 -16.15625 C 14.035156 -17.0625 12.691406 -17.515625 10.953125 -17.515625 C 9.992188 -17.515625 9.09375 -17.351562 8.25 -17.03125 C 7.414062 -16.71875 6.734375 -16.191406 6.203125 -15.453125 C 5.671875 -14.722656 5.40625 -13.734375 5.40625 -12.484375 L 2.203125 -12.484375 C 2.203125 -13.867188 2.539062 -15.144531 3.21875 -16.3125 C 3.894531 -17.488281 4.882812 -18.441406 6.1875 -19.171875 C 7.5 -19.910156 9.085938 -20.28125 10.953125 -20.28125 C 12.828125 -20.28125 14.421875 -19.898438 15.734375 -19.140625 C 17.054688 -18.378906 18.070312 -17.320312 18.78125 -15.96875 C 19.488281 -14.625 19.84375 -13.0625 19.84375 -11.28125 L 19.84375 -2.796875 L 22.765625 -2.796875 L 22.765625 0 L 19.234375 0 C 17.660156 0 16.875 -0.769531 16.875 -2.3125 L 16.875 -3.40625 L 17.40625 -5.484375 L 16.4375 -5.484375 C 16.195312 -4.460938 15.773438 -3.503906 15.171875 -2.609375 C 14.578125 -1.722656 13.757812 -1 12.71875 -0.4375 C 11.675781 0.125 10.359375 0.40625 8.765625 0.40625 C 7.316406 0.40625 6.148438 0.195312 5.265625 -0.21875 C 4.390625 -0.632812 3.722656 -1.15625 3.265625 -1.78125 C 2.816406 -2.40625 2.515625 -3.054688 2.359375 -3.734375 C 2.203125 -4.421875 2.125 -5.015625 2.125 -5.515625 Z M 5.40625 -5.921875 C 5.40625 -4.773438 5.742188 -3.898438 6.421875 -3.296875 C 7.097656 -2.703125 8.007812 -2.40625 9.15625 -2.40625 C 10.675781 -2.40625 11.988281 -2.722656 13.09375 -3.359375 C 14.207031 -3.992188 15.0625 -4.859375 15.65625 -5.953125 C 16.257812 -7.046875 16.5625 -8.273438 16.5625 -9.640625 L 9.203125 -8.875 C 7.941406 -8.769531 6.992188 -8.5 6.359375 -8.0625 C 5.722656 -7.625 5.40625 -6.910156 5.40625 -5.921875 Z M 5.40625 -5.921875 "/></g></g></g></svg>